<?xml version="1.0" standalone="no"?>
<!DOCTYPE svg PUBLIC "-//W3C//DTD SVG 20010904//EN"
 "http://www.w3.org/TR/2001/REC-SVG-20010904/DTD/svg10.dtd">
<svg version="1.0" xmlns="http://www.w3.org/2000/svg"
 width="73.000000pt" height="64.000000pt" viewBox="0 0 73.000000 64.000000"
 preserveAspectRatio="xMidYMid meet">

<g transform="translate(0.000000,64.000000) scale(0.100000,-0.100000)"
fill="#000000" stroke="none">
<path d="M615 603 c-27 -9 -71 -15 -97 -14 -55 2 -88 -23 -88 -64 0 -30 3 -29
-50 -10 -23 8 -55 15 -70 15 -15 0 -62 9 -105 20 -91 23 -163 26 -190 6 -18
-13 -15 -16 39 -51 32 -20 78 -46 102 -56 23 -11 70 -35 104 -54 34 -19 67
-35 74 -35 19 0 -28 -134 -75 -213 -43 -73 -48 -106 -10 -68 24 24 28 23 45
-10 6 -12 21 -29 34 -37 21 -14 23 -13 41 29 11 24 22 74 26 111 6 59 10 67
31 72 29 8 91 97 98 141 24 150 29 166 53 185 13 10 37 22 53 25 17 4 32 11
35 16 4 5 5 9 3 8 -2 0 -25 -8 -53 -16z"/>
</g>
</svg>
